/* XPM */
static char *icons_app_xpm[] = {
/* columns rows colors chars-per-pixel */
"32 32 146 2 ",
"   c black",
".  c #010101",
"X  c #020202",
"o  c gray1",
"O  c gray2",
"+  c #060606",
"@  c #070707",
"#  c gray3",
"$  c #090909",
"%  c gray4",
"&  c #0B0B0B",
"*  c gray5",
"=  c gray6",
"-  c #111111",
";  c #131313",
":  c gray8",
">  c #191919",
",  c #1B1B1B",
"<  c gray11",
"1  c #1D1D1D",
"2  c #1E1E1E",
"3  c gray12",
"4  c gray13",
"5  c #232323",
"6  c gray14",
"7  c #252525",
"8  c gray16",
"9  c #2A2A2A",
"0  c gray17",
"q  c #2C2C2C",
"w  c #2D2D2D",
"e  c #313131",
"r  c #323232",
"t  c #373737",
"y  c gray22",
"u  c gray23",
"i  c gray24",
"p  c #3E3E3E",
"a  c #414141",
"s  c #434343",
"d  c #444444",
"f  c gray27",
"g  c #464646",
"h  c gray28",
"j  c #484848",
"k  c #494949",
"l  c #4B4B4B",
"z  c #4E4E4E",
"x  c gray31",
"c  c #515151",
"v  c #535353",
"b  c gray33",
"n  c gray34",
"m  c #585858",
"M  c gray35",
"N  c #5B5B5B",
"B  c gray36",
"V  c #5F5F5F",
"C  c gray39",
"Z  c #646464",
"A  c #656565",
"S  c #676767",
"D  c #686868",
"F  c #6A6A6A",
"G  c gray42",
"H  c #6D6D6D",
"J  c gray43",
"K  c gray44",
"L  c #717171",
"P  c #767676",
"I  c gray48",
"U  c #7B7B7B",
"Y  c #7C7C7C",
"T  c #7E7E7E",
"R  c gray51",
"E  c #848484",
"W  c gray52",
"Q  c gray53",
"!  c #8B8B8B",
"~  c #8D8D8D",
"^  c gray57",
"/  c #939393",
"(  c gray58",
")  c #959595",
"_  c gray59",
"`  c gray60",
"'  c gray61",
"]  c gray62",
"[  c #9F9F9F",
"{  c #A2A2A2",
"}  c #A4A4A4",
"|  c #A5A5A5",
" . c gray66",
".. c #A9A9A9",
"X. c gray67",
"o. c #AEAEAE",
"O. c #AFAFAF",
"+. c gray69",
"@. c #B2B2B2",
"#. c gray70",
"$. c #B5B5B5",
"%. c #B6B6B6",
"&. c gray74",
"*. c gray",
"=. c gray75",
"-. c gray76",
";. c #C5C5C5",
":. c #C6C6C6",
">. c gray79",
",. c #CACACA",
"<. c #CBCBCB",
"1. c #CDCDCD",
"2. c gray81",
"3. c #D0D0D0",
"4. c gray83",
"5. c #D5D5D5",
"6. c #D7D7D7",
"7. c #D8D8D8",
"8. c gray85",
"9. c #DADADA",
"0. c gray86",
"q. c gainsboro",
"w. c gray88",
"e. c #E1E1E1",
"r. c #E2E2E2",
"t. c gray89",
"y. c gray90",
"u. c #E7E7E7",
"i. c gray91",
"p. c #E9E9E9",
"a. c gray92",
"s. c #ECECEC",
"d. c gray93",
"f. c #EFEFEF",
"g. c #F1F1F1",
"h. c gray95",
"j. c #F3F3F3",
"k. c #F4F4F4",
"l. c gray96",
"z. c #F6F6F6",
"x. c gray97",
"c. c #F8F8F8",
"v. c #F9F9F9",
"b. c #FBFBFB",
"n. c white",
"m. c None",
/* pixels */
"m.m.m.m.m.m.m.m.m.m.m.m.m.m.m.m.m.m.m.m.m.m.m.m.m.m.m.m.m.m.m.m.",
"m.m.m.m.m.                                                  m.m.",
"m.m.$ i i q                                                   m.",
"m.m.6 n.n.u.O.O.a 5 2                                     O O   ",
"m.m.m.n.n.n.n.n.n.n.f.) ( M $ #                       O f | u   ",
"m.m.m.n.n.n.n.n.n.n.n.n.n.n.n.n.U I 5               n ;.n.n.k   ",
"m.  X.n.n.n.n.n.n.n.n.n.n.n.n.n.n.n.g.s.+.d     8 7.v.n.n.n.j   ",
"m.  %.n.n.p.b q 0 v -.n.n.n.n.n.n.n.n.n.n.i $ _ y.n.n.n.n.n.j   ",
"m.  %.n.n.$.+ 0 Y 3 2 a.n.n.n.n.n.n.n.n.O.% i n.n.n.n.n.n.n.j   ",
"m.  $.n.n.$.4 x.n.t.w Q n.n.n.n.n.n.n.n.t q r.n.n.n.n.n.n.n.j   ",
"m.  $.n.n.0.7 g n.n.j - n.n.n.n.n.n.n.#.  / n.n.n.n.n.n.n.n.k   ",
"m.  $.n.n.n.W   d H X ~ n.n.n.n.n.n.0.o w i.n.n.n.n.n.n.n.n.j   ",
"m.  $.n.n.n.v.0.x z C f.n.n.n.n.n.u.g   ` n.n.n.n.u.u.n.n.n.k   ",
"m.  $.n.n.n.n.n.n.n.n.n.n.n.n.n.k.d   2 n.n.n.n.n.$.$.n.n.n.j   ",
"m.1 4.n.n.n.n.n.n.n.n.n.n.n.n.n._ +   ^ n.n.n.n.n.m.$.n.n.n.j   ",
"m.j n.n.n.n.n.n.n.n.n.n.n.n.n.o.    : 1.n.n.n.n.n.m.$.n.n.n.j m.",
"m.k n.n.n.n.n.n.n.n.n.n.n.n.`       ; 1.n.n.n.n.n.m.| n.n.n.j m.",
"m.j n.n.n.n.n.n.n.n.n.n.8.T @   7 p   = n.n.n.n.n.m.m.n.8.=.j m.",
"m.j n.n.n.n.n.n.n.n.6.K 1 - c >.e.f.B   L z.n.n.n.6 m.9.m.G j m.",
"m.j n.n.n.n.n.n.0.C 4 5 V ;.n.n.n.n.j.V   P n.n.n.6 & 4 V h.j m.",
"m.j n.n.b.l.' D m.e } n.n.n.n.n.n.n.n.n.m 3 2.n.n.6 . m n.n.k m.",
"m.k d.E z .   g @.n.n.n.n.n.n.n.n.n.n.n.n.G ; >.n.m.F n.n.n.j m.",
"m.O =   8 A ,.x.n.n.n.n.n.n.n.n.n.n.n.n.n.v.s % n.f.c.n.n.n.j m.",
"m.  r _ y.n.n.n.n.n.n.n.n.n.n.n.n.n.n.n.n.n.<.2 S k.n.n.n.3., m.",
"m.* -.n.n.n.n.n.n.n.n.n.} l *.n.n.n.n.n.n.n.n.5.> Z g.n.n.$.  m.",
"m.j n.n.n.n.n.n.n.n.n.k.  @ { n.n.n.n.n.n.n.n.n.4.< N n.n.$.  m.",
"m.j n.n.n.n.n.n.n.n.n.H   } a.I U a.n.@.#.n.n.n.n._ - :.n.$.  m.",
"m.9 w.n.n.n.n.n.n.n.n...  @ @     # $ o  .n.n.n.n.b.R O -.$.  m.",
"m.m.F q.n.n.n.n.n.n.n.n.] z C 9.[ & y ] n.n.n.n.n.n.v.! 7 ]   m.",
"m.m.  5 i A >.,.,.>.>.>.>.>.>.>.,.( &.k.n.n.n.n.n.n.n.n.J 5   m.",
"m.m.m.m.                            $ h n n n n n n n m r     m.",
"m.m.m.m.m.m.m.m.m.m.m.m.m.m.m.m.m.m.m.m.m.m.m.m.m.m.m.m.m.m.m.m."
};
